HIERARCHY
ROOT mixamorig:Hips
{
	OFFSET 0.000000 201.639420 0.000000
	CHANNELS 6 Xposition Yposition Zposition Xrotation Yrotation Zrotation
	JOINT mixamorig:Spine
	{
		OFFSET 0.006200 19.524994 -2.481800
		CHANNELS 3 Xrotation Yrotation Zrotation
		JOINT mixamorig:Spine1
		{
			OFFSET -0.000900 22.835007 -2.825400
			CHANNELS 3 Xrotation Yrotation Zrotation
			JOINT mixamorig:Spine2
			{
				OFFSET -0.020600 26.552490 -3.193300
				CHANNELS 3 Xrotation Yrotation Zrotation
				JOINT mixamorig:Neck
				{
					OFFSET -0.060000 30.701813 1.352200
					CHANNELS 3 Xrotation Yrotation Zrotation
					JOINT mixamorig:Head
					{
						OFFSET -0.087200 22.547607 3.670900
						CHANNELS 3 Xrotation Yrotation Zrotation
						JOINT mixamorig:HeadTop_End
						{
							OFFSET -0.830600 40.355194 7.893500
							CHANNELS 3 Xrotation Yrotation Zrotation
							End Site
							{
								OFFSET 0.000000 30.592346 0.000000
							}
						}
						JOINT mixamorig:RightEye
						{
							OFFSET -6.302100 18.118591 16.197100
							CHANNELS 3 Xrotation Yrotation Zrotation
							End Site
							{
								OFFSET 0.000000 30.592346 0.000000
							}
						}
						JOINT mixamorig:LeftEye
						{
							OFFSET 6.741500 18.382690 16.401899
							CHANNELS 3 Xrotation Yrotation Zrotation
							End Site
							{
								OFFSET 0.000000 30.592346 0.000000
							}
						}
					}
				}
				JOINT mixamorig:LeftShoulder
				{
					OFFSET 11.924900 18.230499 1.425400
					CHANNELS 3 Xrotation Yrotation Zrotation
					JOINT mixamorig:LeftArm
					{
						OFFSET 25.435989 -0.697632 -5.229300
						CHANNELS 3 Xrotation Yrotation Zrotation
						JOINT mixamorig:LeftForeArm
						{
							OFFSET 54.684776 0.000000 0.000000
							CHANNELS 3 Xrotation Yrotation Zrotation
							JOINT mixamorig:LeftHand
							{
								OFFSET 55.098175 0.000000 0.000000
								CHANNELS 3 Xrotation Yrotation Zrotation
								JOINT mixamorig:LeftHandMiddle1
								{
									OFFSET 23.369751 0.000000 0.000000
									CHANNELS 3 Xrotation Yrotation Zrotation
									JOINT mixamorig:LeftHandMiddle2
									{
										OFFSET 6.378677 0.000000 0.000000
										CHANNELS 3 Xrotation Yrotation Zrotation
										JOINT mixamorig:LeftHandMiddle3
										{
											OFFSET 6.148331 0.000000 0.000000
											CHANNELS 3 Xrotation Yrotation Zrotation
											JOINT mixamorig:LeftHandMiddle4
											{
												OFFSET 6.582504 0.000000 0.000000
												CHANNELS 3 Xrotation Yrotation Zrotation
												End Site
												{
													OFFSET -1.168900 6.395691 1.028606
												}
											}
										}
									}
								}
								JOINT mixamorig:LeftHandThumb1
								{
									OFFSET 7.235672 -3.848206 5.434273
									CHANNELS 3 Xrotation Yrotation Zrotation
									JOINT mixamorig:LeftHandThumb2
									{
										OFFSET 6.568451 -3.792297 3.792300
										CHANNELS 3 Xrotation Yrotation Zrotation
										JOINT mixamorig:LeftHandThumb3
										{
											OFFSET 6.063080 -3.500519 3.500518
											CHANNELS 3 Xrotation Yrotation Zrotation
											JOINT mixamorig:LeftHandThumb4
											{
												OFFSET 4.793182 -2.767334 2.767349
												CHANNELS 3 Xrotation Yrotation Zrotation
												End Site
												{
													OFFSET 0.101639 6.054260 1.275483
												}
											}
										}
									}
								}
								JOINT mixamorig:LeftHandIndex1
								{
									OFFSET 23.101074 -0.309540 4.992809
									CHANNELS 3 Xrotation Yrotation Zrotation
									JOINT mixamorig:LeftHandIndex2
									{
										OFFSET 6.226883 0.000000 0.000000
										CHANNELS 3 Xrotation Yrotation Zrotation
										JOINT mixamorig:LeftHandIndex3
										{
											OFFSET 6.094330 0.000000 0.000000
											CHANNELS 3 Xrotation Yrotation Zrotation
											JOINT mixamorig:LeftHandIndex4
											{
												OFFSET 5.482605 0.000000 0.000000
												CHANNELS 3 Xrotation Yrotation Zrotation
												End Site
												{
													OFFSET -1.427902 5.233032 0.797164
												}
											}
										}
									}
								}
								JOINT mixamorig:LeftHandRing1
								{
									OFFSET 22.299240 0.021149 -3.964172
									CHANNELS 3 Xrotation Yrotation Zrotation
									JOINT mixamorig:LeftHandRing2
									{
										OFFSET 6.321869 0.000000 0.000000
										CHANNELS 3 Xrotation Yrotation Zrotation
										JOINT mixamorig:LeftHandRing3
										{
											OFFSET 5.899796 0.000000 0.000000
											CHANNELS 3 Xrotation Yrotation Zrotation
											JOINT mixamorig:LeftHandRing4
											{
												OFFSET 6.517899 0.000000 0.000000
												CHANNELS 3 Xrotation Yrotation Zrotation
												End Site
												{
													OFFSET -1.637299 6.232208 0.980890
												}
											}
										}
									}
								}
								JOINT mixamorig:LeftHandPinky1
								{
									OFFSET 20.463791 -0.302338 -8.562233
									CHANNELS 3 Xrotation Yrotation Zrotation
									JOINT mixamorig:LeftHandPinky2
									{
										OFFSET 6.908646 0.000000 0.000000
										CHANNELS 3 Xrotation Yrotation Zrotation
										JOINT mixamorig:LeftHandPinky3
										{
											OFFSET 4.622849 0.000000 0.000000
											CHANNELS 3 Xrotation Yrotation Zrotation
											JOINT mixamorig:LeftHandPinky4
											{
												OFFSET 5.216080 0.000000 0.000000
												CHANNELS 3 Xrotation Yrotation Zrotation
												End Site
												{
													OFFSET -0.606308 5.116241 0.814926
												}
											}
										}
									}
								}
							}
						}
					}
				}
				JOINT mixamorig:RightShoulder
				{
					OFFSET -12.001300 18.284088 1.348900
					CHANNELS 3 Xrotation Yrotation Zrotation
					JOINT mixamorig:RightArm
					{
						OFFSET -25.308500 -0.751312 -5.164599
						CHANNELS 3 Xrotation Yrotation Zrotation
						JOINT mixamorig:RightForeArm
						{
							OFFSET -54.684429 0.000000 0.000000
							CHANNELS 3 Xrotation Yrotation Zrotation
							JOINT mixamorig:RightHand
							{
								OFFSET -55.150291 0.000000 0.000000
								CHANNELS 3 Xrotation Yrotation Zrotation
								JOINT mixamorig:RightHandMiddle1
								{
									OFFSET -23.317566 0.000000 0.000000
									CHANNELS 3 Xrotation Yrotation Zrotation
									JOINT mixamorig:RightHandMiddle2
									{
										OFFSET -6.378403 0.000000 0.000000
										CHANNELS 3 Xrotation Yrotation Zrotation
										JOINT mixamorig:RightHandMiddle3
										{
											OFFSET -6.148193 0.000000 0.000000
											CHANNELS 3 Xrotation Yrotation Zrotation
											JOINT mixamorig:RightHandMiddle4
											{
												OFFSET -6.583389 0.000000 0.000000
												CHANNELS 3 Xrotation Yrotation Zrotation
												End Site
												{
													OFFSET 1.171692 6.395905 1.029786
												}
											}
										}
									}
								}
								JOINT mixamorig:RightHandThumb1
								{
									OFFSET -7.190521 -3.860474 5.435846
									CHANNELS 3 Xrotation Yrotation Zrotation
									JOINT mixamorig:RightHandThumb2
									{
										OFFSET -6.567429 -3.791718 3.791708
										CHANNELS 3 Xrotation Yrotation Zrotation
										JOINT mixamorig:RightHandThumb3
										{
											OFFSET -6.062469 -3.500153 3.500166
											CHANNELS 3 Xrotation Yrotation Zrotation
											JOINT mixamorig:RightHandThumb4
											{
												OFFSET -4.792618 -2.767029 2.767022
												CHANNELS 3 Xrotation Yrotation Zrotation
												End Site
												{
													OFFSET -0.100327 6.053253 1.276754
												}
											}
										}
									}
								}
								JOINT mixamorig:RightHandIndex1
								{
									OFFSET -23.048981 -0.310791 4.992554
									CHANNELS 3 Xrotation Yrotation Zrotation
									JOINT mixamorig:RightHandIndex2
									{
										OFFSET -6.227539 0.000000 0.000000
										CHANNELS 3 Xrotation Yrotation Zrotation
										JOINT mixamorig:RightHandIndex3
										{
											OFFSET -6.095047 0.000000 0.000000
											CHANNELS 3 Xrotation Yrotation Zrotation
											JOINT mixamorig:RightHandIndex4
											{
												OFFSET -5.484772 0.000000 0.000000
												CHANNELS 3 Xrotation Yrotation Zrotation
												End Site
												{
													OFFSET 1.420593 5.237305 0.797056
												}
											}
										}
									}
								}
								JOINT mixamorig:RightHandRing1
								{
									OFFSET -22.246323 0.020569 -3.963762
									CHANNELS 3 Xrotation Yrotation Zrotation
									JOINT mixamorig:RightHandRing2
									{
										OFFSET -6.322128 0.000000 0.000000
										CHANNELS 3 Xrotation Yrotation Zrotation
										JOINT mixamorig:RightHandRing3
										{
											OFFSET -5.900024 0.000000 0.000000
											CHANNELS 3 Xrotation Yrotation Zrotation
											JOINT mixamorig:RightHandRing4
											{
												OFFSET -6.518356 0.000000 0.000000
												CHANNELS 3 Xrotation Yrotation Zrotation
												End Site
												{
													OFFSET 1.636398 6.232697 0.982186
												}
											}
										}
									}
								}
								JOINT mixamorig:RightHandPinky1
								{
									OFFSET -20.411011 -0.303314 -8.561701
									CHANNELS 3 Xrotation Yrotation Zrotation
									JOINT mixamorig:RightHandPinky2
									{
										OFFSET -6.907349 0.000000 0.000000
										CHANNELS 3 Xrotation Yrotation Zrotation
										JOINT mixamorig:RightHandPinky3
										{
											OFFSET -4.623840 0.000000 0.000000
											CHANNELS 3 Xrotation Yrotation Zrotation
											JOINT mixamorig:RightHandPinky4
											{
												OFFSET -5.218353 0.000000 0.000000
												CHANNELS 3 Xrotation Yrotation Zrotation
												End Site
												{
													OFFSET 0.602097 5.118835 0.816273
												}
											}
										}
									}
								}
							}
						}
					}
				}
			}
		}
	}
	JOINT mixamorig:LeftUpLeg
	{
		OFFSET 18.168400 -13.561905 -0.039000
		CHANNELS 3 Xrotation Yrotation Zrotation
		JOINT mixamorig:LeftLeg
		{
			OFFSET 0.577358 -80.825211 -3.695000
			CHANNELS 3 Xrotation Yrotation Zrotation
			JOINT mixamorig:LeftFoot
			{
				OFFSET -0.577356 -83.370262 -6.520700
				CHANNELS 3 Xrotation Yrotation Zrotation
				JOINT mixamorig:LeftToeBase
				{
					OFFSET 0.750401 -20.798306 25.135401
					CHANNELS 3 Xrotation Yrotation Zrotation
					JOINT mixamorig:LeftToe_End
					{
						OFFSET -0.000500 0.001200 19.917799
						CHANNELS 3 Xrotation Yrotation Zrotation
						End Site
						{
							OFFSET 0.000000 19.917805 0.000000
						}
					}
				}
			}
		}
	}
	JOINT mixamorig:RightUpLeg
	{
		OFFSET -18.162500 -13.585098 -0.041000
		CHANNELS 3 Xrotation Yrotation Zrotation
		JOINT mixamorig:RightLeg
		{
			OFFSET -0.595024 -80.945297 -3.631900
			CHANNELS 3 Xrotation Yrotation Zrotation
			JOINT mixamorig:RightFoot
			{
				OFFSET 0.595024 -83.218193 -6.561200
				CHANNELS 3 Xrotation Yrotation Zrotation
				JOINT mixamorig:RightToeBase
				{
					OFFSET -0.753601 -20.807106 25.115000
					CHANNELS 3 Xrotation Yrotation Zrotation
					JOINT mixamorig:RightToe_End
					{
						OFFSET 0.000299 0.001700 19.918200
						CHANNELS 3 Xrotation Yrotation Zrotation
						End Site
						{
							OFFSET 0.000000 19.918203 0.000000
						}
					}
				}
			}
		}
	}
}
MOTION
Frames: 5
Frame Time: 0.033333
11.762103 506.884888 724.932861 -122.165064 -15.682604 -2.093315 19.789425 -0.741034 -2.562039 22.740826 -0.911033 -2.081381 25.607359 -1.110515 -2.280523 3.071552 4.460327 10.357987 34.556652 6.386597 -14.620486 0.000000 -0.000000 -0.000000 0.000000 -0.000000 -0.000000 0.000000 -0.000000 -0.000000 -1.702325 -12.552740 8.491574 -29.059385 -53.822577 -11.437563 0.000005 -41.958672 0.000005 -116.015244 23.086835 1.876376 9.542963 8.245951 -89.335985 9.019319 4.921547 -122.830352 9.275831 4.746864 -125.873215 -0.000000 0.000003 -0.000001 27.987515 -13.543307 -38.206033 -62.059632 72.885604 81.861784 -1.759659 48.369217 34.794182 0.000000 -0.000001 -0.000000 3.123740 8.083292 -87.439289 5.970514 5.849835 -91.171981 5.825366 5.851006 -89.748030 0.000001 0.000001 -0.000002 9.353909 8.275660 -88.808305 8.692144 5.117104 -119.091875 9.089981 4.875383 -123.658007 -0.000000 -0.000002 0.000000 4.421910 19.256318 -82.518336 8.517755 5.209910 -117.154437 9.619751 4.478964 -130.147424 0.000001 -0.000002 0.000000 85.658441 64.835871 -100.169956 -63.775300 0.917965 -6.020469 0.000008 45.742013 -0.000015 -70.463660 -44.223525 -16.308105 -0.592398 -5.820193 76.731657 4.357842 -4.647566 86.310662 4.635839 -4.657111 89.737375 0.000002 -0.000000 0.000001 77.563348 26.327131 -25.251901 28.000301 -27.153279 26.005578 19.035981 -15.633038 18.273591 -0.000002 0.000000 0.000002 -1.354214 -5.081320 70.508316 4.677918 -4.657096 90.255800 4.545892 -4.655835 88.629341 -0.000002 0.000000 -0.000000 -0.662858 -5.600329 74.130953 4.845404 -4.653376 92.319063 4.145907 -4.629051 83.690800 -0.000001 0.000001 0.000001 -0.092631 -19.345234 70.672036 4.804103 -4.654860 91.809900 3.939899 -4.601717 81.130804 -0.000003 0.000000 -0.000001 -61.489960 2.528342 15.009310 88.572916 -9.263411 -0.359831 9.757397 -5.595331 -19.278533 0.755337 -0.000002 -0.000010 -0.000001 -0.000001 0.000000 -65.916257 18.875974 -30.655494 118.775856 5.166901 0.382933 31.866012 -4.459070 -6.072899 -4.158074 0.000008 0.000001 0.000003 -0.000001 0.000003 
14.627402 516.118530 745.705505 -117.878014 -20.410274 -3.628841 17.566401 -0.349828 -2.137758 20.291985 -0.529713 -2.040341 22.714038 -0.549621 -1.975937 4.396945 4.896492 10.526065 34.216598 6.549796 -16.686842 0.000001 -0.000000 -0.000001 0.000001 -0.000000 -0.000001 0.000001 -0.000000 -0.000001 -0.579353 -11.627660 7.855631 -27.401346 -53.539572 -16.503276 -0.000004 -36.649453 0.000004 -112.416472 19.573900 -3.258556 9.480356 8.283677 -88.728850 8.804633 5.053091 -120.361238 9.020209 4.920973 -122.840747 -0.000002 -0.000000 -0.000000 28.114017 -13.730177 -38.296054 -58.203259 72.420229 77.517723 -1.830036 46.352816 34.688243 0.000001 -0.000002 -0.000000 3.148178 8.028709 -86.768845 6.010819 5.848877 -91.567408 5.809771 5.850913 -89.594993 -0.000003 -0.000000 -0.000000 9.287747 8.309872 -88.223948 8.478874 5.229605 -116.727004 8.826452 5.040300 -120.609133 -0.000000 0.000000 0.000001 4.092672 19.715628 -81.898640 8.301555 5.314808 -114.797585 9.619745 4.478967 -130.147410 0.000001 0.000001 0.000000 87.759052 65.657174 -101.518515 -62.215483 0.992146 1.750553 0.000000 40.495369 0.000002 -61.855484 -39.226634 -9.242797 -0.616147 -5.791521 76.435950 4.391696 -4.649629 86.728581 4.618860 -4.657015 89.528077 0.000005 0.000000 -0.000000 77.327030 27.109186 -25.122897 28.000285 -27.153291 26.005583 18.738644 -15.186692 18.085468 0.000001 -0.000002 0.000001 -1.383902 -5.052286 70.299982 4.700191 -4.656940 90.530025 4.528114 -4.655369 88.410385 -0.000003 0.000001 0.000001 -0.672467 -5.581225 73.919067 4.865417 -4.652524 92.565456 4.138386 -4.628220 83.597520 -0.000001 -0.000000 -0.000003 -0.401828 -19.563016 70.497326 4.826829 -4.654094 92.090061 3.919120 -4.598427 80.871701 -0.000002 -0.000001 0.000001 -61.219846 2.627539 14.813552 96.088310 -8.402652 -0.242479 14.377868 -8.795623 -16.375216 0.368485 0.000003 0.000005 0.000001 0.000000 0.000000 -59.309558 24.563418 -33.418972 120.179610 4.277385 1.065804 33.311065 -6.110019 -11.171733 -1.267405 -0.000006 -0.000012 -0.000001 0.000000 -0.000002 
16.997292 525.610046 765.506897 -110.671734 -25.904372 -4.935625 14.716218 -0.063254 -1.270858 17.849617 -0.147487 -1.266207 19.801302 -0.273585 -1.513740 6.101877 5.431667 10.604607 33.738976 6.627525 -19.005305 -0.000001 0.000000 -0.000000 -0.000001 0.000000 -0.000000 -0.000001 0.000000 -0.000000 0.492165 -10.724881 7.150997 -24.150137 -47.885982 -19.764983 -0.000011 -39.289256 -0.000020 -109.848170 13.445152 -5.194158 9.410099 8.324939 -88.051807 8.539235 5.198879 -117.391336 8.702435 5.111376 -119.207483 -0.000001 0.000000 -0.000001 28.272752 -13.969018 -38.280529 -53.480757 71.837648 72.208330 -1.863791 44.042467 34.534451 0.000000 0.000003 0.000002 3.145290 7.706000 -86.026800 6.057566 5.847421 -92.026267 5.793041 5.850773 -89.430911 0.000001 0.000000 -0.000000 9.214894 8.346961 -87.576125 8.218061 5.352435 -113.899210 8.500836 5.218498 -116.968642 -0.000000 0.000000 -0.000000 3.742739 20.189117 -81.243720 8.038608 5.428067 -111.989175 9.536756 4.547466 -129.092693 0.000001 0.000002 0.000000 89.032465 66.612724 -102.505157 -59.602321 1.568361 9.890005 0.000016 38.669075 -0.000016 -56.258663 -33.725364 -6.160476 -0.644248 -5.762756 76.155052 4.431072 -4.651695 87.214112 4.597809 -4.656776 89.268940 0.000003 -0.000001 0.000001 77.023982 27.996401 -24.937642 28.000314 -27.153260 26.005571 18.426295 -14.695172 17.897469 0.000000 -0.000001 -0.000003 -1.414181 -5.028315 70.153016 4.724390 -4.656646 90.828252 4.506680 -4.654737 88.146316 -0.000001 0.000000 0.000000 -0.681183 -5.565564 73.748845 4.886134 -4.651547 92.821021 4.130854 -4.627380 83.504274 -0.000001 0.000001 0.000001 -0.740614 -19.748841 70.387251 4.850937 -4.653165 92.387167 3.897285 -4.594883 80.599272 0.000003 0.000001 -0.000000 -60.802808 3.114470 15.772654 98.472654 -7.722265 -0.436691 16.625802 -10.356186 -13.324465 0.553198 -0.000009 0.000003 -0.000001 -0.000003 0.000000 -58.813208 26.744167 -32.843214 121.865328 4.785577 1.340661 30.972954 -5.928830 -12.852174 2.022164 0.000003 -0.000007 0.000001 -0.000000 0.000000 
18.603418 534.515381 784.918152 -101.905009 -31.112550 -5.785624 11.181746 0.947143 0.154210 14.544341 1.464228 -0.108174 16.042759 0.915327 -1.536526 8.129987 6.000869 10.559445 33.111128 6.719890 -21.448616 -0.000001 -0.000000 -0.000000 -0.000001 -0.000000 -0.000000 -0.000001 -0.000000 -0.000000 1.511295 -9.844986 6.379222 -25.756034 -49.218145 -27.599685 -0.000012 -32.278077 -0.000007 -104.594184 10.172079 -10.556436 9.334633 8.369889 -87.301074 8.217593 5.352631 -113.894395 8.314878 5.308648 -114.941415 -0.000000 -0.000002 0.000000 28.466130 -14.262044 -38.152627 -48.005028 71.053427 66.047308 -1.831018 41.433666 34.299581 0.000003 0.000000 -0.000001 3.105699 7.333758 -85.208591 6.111132 5.845279 -92.552150 5.775121 5.850558 -89.255150 -0.000000 0.000000 -0.000001 9.135014 8.386940 -86.861394 7.905173 5.479823 -110.585271 8.106022 5.400444 -112.703722 0.000000 0.000001 0.000001 3.369955 20.677066 -80.551119 7.724648 5.543963 -108.706046 9.188343 4.808732 -124.822595 -0.000001 0.000001 0.000001 89.104483 67.718184 -102.781650 -53.933042 0.000504 16.424592 -0.000015 36.049977 0.000008 -55.985128 -26.318744 -3.825276 -0.675647 -5.734164 75.889863 4.476234 -4.653667 87.770854 4.572505 -4.656396 88.957279 -0.000001 -0.000001 -0.000002 76.648444 28.993446 -24.687522 28.000301 -27.153262 26.005592 18.098505 -14.155903 17.710382 0.000001 -0.000001 0.000001 -1.295697 -4.599103 70.083307 4.750668 -4.656212 91.151852 4.481397 -4.653850 87.834580 0.000006 -0.000001 0.000001 -0.689008 -5.553513 73.622595 4.907636 -4.650450 93.086155 4.123341 -4.626509 83.411021 0.000004 -0.000002 0.000002 -1.109668 -19.902012 70.345553 4.876490 -4.652009 92.702121 3.874354 -4.591034 80.312882 -0.000002 0.000001 -0.000001 -59.439011 2.932625 15.525578 94.685574 -7.453267 -0.470909 15.794479 -8.099183 -11.559209 0.914760 -0.000011 0.000000 0.000000 0.000003 0.000000 -59.475040 25.543046 -30.912613 121.303285 4.470064 1.176363 27.936461 -5.310794 -12.700322 2.009503 0.000002 0.000010 0.000002 0.000001 0.000001 
19.700272 542.375671 805.541199 -90.689285 -36.101023 -5.009439 8.172035 1.511060 1.445716 11.888789 2.251971 0.694575 12.956000 1.638638 -1.393631 10.323603 6.546153 10.367857 32.332104 6.929515 -23.891240 0.000000 0.000001 0.000001 0.000000 0.000001 0.000001 0.000000 0.000001 0.000001 2.476988 -8.988204 5.541910 -20.784612 -40.636146 -25.702973 0.000012 -44.847596 0.000022 -102.364366 4.944078 -6.013312 9.250996 8.418408 -86.472606 7.834221 5.505813 -109.844291 7.850176 5.500069 -110.010408 -0.000000 0.000002 0.000001 28.696917 -14.611028 -37.905296 -41.971823 69.970992 59.233716 -1.705272 38.522021 33.949001 0.000002 0.000001 0.000002 3.030702 6.907714 -84.311343 6.171862 5.842287 -93.148487 5.755970 5.850274 -89.067135 -0.000003 -0.000001 0.000001 9.047485 8.429702 -86.076113 7.535807 5.604069 -106.762024 7.634990 5.573368 -107.780638 -0.000002 -0.000001 -0.000002 2.972019 21.179660 -79.818533 7.355579 5.654962 -104.924977 8.760148 5.078836 -119.857088 0.000000 -0.000003 -0.000000 87.358072 68.984398 -101.719118 -46.374700 0.964005 20.002554 -0.000005 42.748211 0.000007 -61.017044 -22.455485 -8.259458 -0.710468 -5.705790 75.641265 4.527497 -4.655378 88.402647 4.542729 -4.655763 88.590470 -0.000001 -0.000001 -0.000000 76.193697 30.104390 -24.362308 28.000287 -27.153263 26.005573 17.754773 -13.566250 17.525067 0.000001 -0.000001 0.000002 -1.151906 -4.104689 70.082624 4.779098 -4.655553 91.502105 4.452039 -4.652645 87.472669 -0.000001 0.000001 -0.000001 -0.695924 -5.545315 73.542662 4.929952 -4.649194 93.361473 4.115817 -4.625651 83.317748 0.000005 -0.000001 -0.000000 -1.509911 -20.022390 70.376008 4.903540 -4.650653 93.035892 3.850241 -4.586872 80.011711 0.000001 0.000000 0.000001 -59.612484 1.660418 15.256517 87.394347 -7.380140 -0.391514 14.714487 -3.616507 -10.434562 0.879189 0.000002 0.000009 -0.000001 -0.000002 0.000001 -60.174438 19.960488 -28.013404 113.214900 0.289416 0.131949 25.902232 -7.023209 -13.710848 -0.195652 -0.000025 0.000010 0.000002 0.000003 -0.000000 
